<?xml version="1.0" encoding="utf-8"?>
<!-- Generator: Adobe Illustrator 25.3.1, SVG Export Plug-In . SVG Version: 6.00 Build 0)  -->
<svg version="1.1" id="Layer_1" xmlns="http://www.w3.org/2000/svg" xmlns:xlink="http://www.w3.org/1999/xlink" x="0px" y="0px"
	 viewBox="0 0 304.37 223.35" style="enable-background:new 0 0 304.37 223.35;" xml:space="preserve">
<style type="text/css">
	.st0{fill:none;stroke:#3CB371;stroke-width:3;}
	.st1{fill:none;stroke:#7D277D;stroke-width:4;stroke-linecap:square;stroke-linejoin:round;}
	.st2{fill:none;stroke:#FAA51A;stroke-width:4;}
	.st3{font-family:'Chalkboard';}
	.st4{font-size:48px;}
	.st5{fill:currentColor}
</style>
<g id="g3447" transform="translate(-28,0)">
	<path id="path3449" class="st0" d="M29.71,183.05l3.01-1.66l3.06-1.85l3.01-1.85l3.01-2.04l3.01-2.04l3.06-2.24l3.01-2.34
		l3.01-2.43l3.01-2.63l3.06-2.63l3.01-2.92l3.01-2.92l3.01-3.21l3.06-3.31l3.01-3.5l3.01-3.6l3.01-3.89l3.06-3.99l3.01-4.28
		l3.01-4.48l3.01-4.77l3.06-4.97l3.01-5.16l3.01-5.55l3.01-2.82l3.06,5.65l3.01,5.35l3.01,5.06l3.01,4.87l3.06,4.58l3.01,4.38
		l3.01,4.19l3.01,3.89l3.06,3.8l3.01,3.6l3.01,3.31l3.01,3.31l3.06,3.02l3.01,2.92l3.01,2.82l3.01,2.63l3.06,2.43l3.01,2.43
		l3.01,2.24l3.01,2.14l3.06,2.04l3.01,2.04l3.01,1.85l3.01,1.75l3.06,1.66l3.01,1.56l3.01,1.56l3.01,1.46l3.06,1.36l3.01,1.27
		l3.01,1.27l3.01,1.17l3.06,1.07l3.01,1.07l3.01,1.07l3.01,0.88l3.06,0.97l3.01,0.88l3.01,0.78l3.01,0.78l3.06,0.78l3.01,0.68
		l3.01,0.68l3.01,0.68l3.06,0.58l3.01,0.58l3.01,0.58l3.01,0.49l3.06,0.49l3.01,0.49l3.01,0.49l3.01,0.39l3.06,0.39l3.01,0.39
		l3.01,0.39l3.01,0.39l3.06,0.29l3.01,0.29l3.01,0.29l3.01,0.29l3.06,0.29l3.01,0.29l3.01,0.19l3.01,0.29l3.06,0.19l3.01,0.19
		l3.01,0.19l3.01,0.19l3.06,0.19l3.01,0.19l3.01,0.1l3.01,0.19l3.06,0.19l3.01,0.1"/>
</g>
<path class="st1" d="M2.09,213.53L2.09,213.53l22.79-1.09l21.59-1.46l17.4-1.65l14.4-1.85l12-2.03l10.2-2.22l8.7-2.38l7.8-2.65
	l6.9-2.87l6-3.02l5.4-3.23l5.1-3.62l4.5-3.75l4.2-4.07l3.9-4.37l3.6-4.64l3.6-5.31l3.3-5.56l3.3-6.33l3-6.51l3-7.32l3-8.22l3-9.21
	l3-10.26l3.3-12.52l3.6-15.06l6-27.41l4.2-19.25l2.7-11.32l2.1-7.7l1.8-5.55l1.5-3.73l1.2-2.32l1.2-1.69l1.2-1.03l1.2-0.34l1.2,0.34
	l1.2,1.03l1.2,1.69l1.5,3l1.5,3.9l1.8,5.73l2.1,7.86l9.9,44.7l3.9,17.26l3.3,13.43l3,11.12l3,10.04l3,9l3,8.03l3,7.15l3,6.36
	l3.3,6.18l3.3,5.43l3.6,5.19l3.9,4.88l3.9,4.23l4.2,3.94l4.8,3.86l5.1,3.48l5.7,3.27l6.6,3.14"/>
<path id="path2842" class="st2" d="M301.66,221.35c-58.71,0-54.83-0.97-61.94-1.95c-27.6-3.78-40.13-35.94-51.1-66.07
	c-13.9-38.2-24.26-75.93-36.77-75.93c-12.51,0-22.86,37.72-36.77,75.93c-10.97,30.13-23.49,62.29-51.1,66.07
	c-7.12,0.98-3.23,1.95-61.94,1.95"/>
<text transform="matrix(1 0 0 1 17.4333 60.4055)" class="st5 st3 st4">GVSSB</text>
</svg>
